<?xml version="1.0" encoding="UTF-8" standalone="no"?>
<!-- Generator: Adobe Illustrator 16.0.0, SVG Export Plug-In . SVG Version: 6.00 Build 0)  -->

<svg
   version="1.0"
   x="0px"
   y="0px"
   width="19px"
   height="19px"
   viewBox="0 0 19 19"
   enable-background="new 0 0 19 19"
   xml:space="preserve"
   id="svg230"
   sodipodi:docname="free black right arrow icon png vector.svg"
   inkscape:version="1.2 (dc2aeda, 2022-05-15)"
   xmlns:inkscape="http://www.inkscape.org/namespaces/inkscape"
   xmlns:sodipodi="http://sodipodi.sourceforge.net/DTD/sodipodi-0.dtd"
   xmlns="http://www.w3.org/2000/svg"
   xmlns:svg="http://www.w3.org/2000/svg"
   xmlns:ns="&amp;ns_sfw;"><defs
   id="defs234" /><sodipodi:namedview
   id="namedview232"
   pagecolor="#ffffff"
   bordercolor="#000000"
   borderopacity="0.25"
   inkscape:showpageshadow="2"
   inkscape:pageopacity="0.0"
   inkscape:pagecheckerboard="0"
   inkscape:deskcolor="#d1d1d1"
   showgrid="false"
   inkscape:zoom="12.421053"
   inkscape:cx="1.3686441"
   inkscape:cy="9.5"
   inkscape:window-width="1440"
   inkscape:window-height="456"
   inkscape:window-x="0"
   inkscape:window-y="25"
   inkscape:window-maximized="0"
   inkscape:current-layer="svg230" />
<metadata
   id="metadata182">
	<ns:sfw>
		<ns:slices />
		<ns:sliceSourceBounds
   height="18.464"
   width="47.525"
   y="-277.114"
   x="258.808"
   bottomLeftOrigin="true" />
		<ns:optimizationSettings>
			<ns:targetSettings
   fileFormat="PNG24Format"
   targetSettingsID="0">
				<ns:PNG24Format
   transparency="true"
   filtered="false"
   matteColor="#FFFFFF"
   noMatteColor="false"
   interlaced="false">
					</ns:PNG24Format>
			</ns:targetSettings>
		</ns:optimizationSettings>
	</ns:sfw>
</metadata>
<g
   id="credit">
	<g
   id="g224">
		<g
   id="g204">
			<path
   d="M31.144,4.085V1.228h1.2h0.109c0.322,0,0.542,0.063,0.659,0.187s0.176,0.356,0.176,0.697     c0,0.327-0.062,0.549-0.184,0.668c-0.122,0.118-0.352,0.178-0.688,0.178l-0.125,0.002h-0.826v1.126H31.144z M31.466,2.687h0.765     c0.32,0,0.525-0.033,0.615-0.099c0.09-0.065,0.135-0.216,0.135-0.452c0-0.276-0.03-0.451-0.092-0.524     c-0.061-0.073-0.205-0.11-0.432-0.11L32.333,1.5h-0.867V2.687z"
   id="path184" />
			<path
   d="M33.995,1.228v2.858h-0.322V1.228H33.995z"
   id="path186" />
			<path
   d="M36.717,1.228l-0.912,1.38l0.982,1.478h-0.382l-0.661-1l-0.105-0.157c-0.006-0.008-0.021-0.034-0.048-0.077l-0.051-0.08     h-0.008l-0.051,0.082c-0.027,0.04-0.045,0.067-0.052,0.08L35.32,3.091l-0.672,0.995h-0.396l1.021-1.478l-0.939-1.38h0.389     l0.635,0.953l0.089,0.134c0.01,0.017,0.024,0.039,0.043,0.067l0.042,0.067h0.008l0.043-0.065c0.021-0.038,0.035-0.06,0.041-0.067     l0.087-0.132l0.626-0.957H36.717z"
   id="path188" />
			<g
   id="g202">
				<path
   d="M39.989,2.585c-0.136-0.105-0.429-0.166-0.895-0.187c-0.494-0.023-0.615-0.07-0.645-0.089      c-0.018-0.012-0.078-0.073-0.078-0.353c0-0.12,0.019-0.274,0.107-0.328c0.059-0.035,0.212-0.078,0.611-0.078      c0.347,0,0.457,0.047,0.491,0.075c0.032,0.026,0.085,0.109,0.085,0.376v0.081h0.483V2.002c0-0.363-0.075-0.597-0.227-0.716      c-0.146-0.114-0.436-0.169-0.886-0.169c-0.442,0-0.735,0.059-0.892,0.18c-0.164,0.126-0.244,0.36-0.244,0.715      c0,0.51,0.278,0.798,0.804,0.834l0.653,0.034c0.213,0.013,0.286,0.056,0.311,0.081c0.022,0.023,0.063,0.092,0.063,0.291      c0,0.328-0.065,0.411-0.095,0.432c-0.039,0.029-0.175,0.078-0.635,0.078c-0.411,0-0.521-0.053-0.55-0.076      c-0.026-0.021-0.087-0.102-0.087-0.413V3.121h-0.484l0.004,0.209c0,0.345,0.078,0.572,0.235,0.693      c0.152,0.116,0.438,0.173,0.871,0.173c0.498,0,0.814-0.056,0.969-0.171c0.162-0.121,0.241-0.365,0.241-0.748      C40.202,2.922,40.132,2.696,39.989,2.585z"
   id="path190" />
				<polygon
   points="40.313,4.167 42.311,4.167 42.311,3.732 40.797,3.732 40.797,2.827 42.247,2.827 42.247,2.393 40.797,2.393       40.797,1.581 42.311,1.581 42.311,1.147 40.313,1.147     "
   id="polygon192" />
				<path
   d="M44.44,3.301c0,0.205-0.036,0.341-0.104,0.384c-0.045,0.029-0.191,0.077-0.667,0.077c-0.478,0-0.6-0.102-0.629-0.162      c-0.044-0.087-0.094-0.396-0.094-1.375c0-0.42,0.074-0.54,0.12-0.574c0.049-0.037,0.218-0.099,0.795-0.099      c0.315,0,0.419,0.049,0.452,0.079c0.031,0.028,0.085,0.114,0.085,0.385l0.003,0.167h0.482l-0.004-0.158      c0-0.351-0.07-0.585-0.217-0.715c-0.143-0.128-0.4-0.19-0.789-0.19c-0.561,0-0.918,0.063-1.098,0.191      c-0.152,0.112-0.248,0.243-0.281,0.39c-0.031,0.135-0.047,0.447-0.047,0.953c0,0.658,0.069,1.068,0.211,1.256      c0.148,0.193,0.468,0.288,0.978,0.288c0.566,0,0.898-0.051,1.049-0.161c0.156-0.114,0.232-0.374,0.232-0.794V3.05h-0.484      L44.44,3.301z"
   id="path194" />
				<polygon
   points="47.202,1.147 44.863,1.147 44.863,1.608 45.795,1.608 45.795,4.167 46.279,4.167 46.279,1.608 47.202,1.608           "
   id="polygon196" />
				<path
   d="M48.453,1.118c-0.491,0-0.82,0.074-1.009,0.227c-0.189,0.154-0.286,0.437-0.286,0.839l-0.005,0.472      c0,0.683,0.072,1.1,0.217,1.274c0.15,0.179,0.504,0.266,1.083,0.266c0.583,0,0.937-0.088,1.084-0.269      c0.144-0.176,0.213-0.604,0.213-1.31c0-0.656-0.073-1.061-0.223-1.235C49.374,1.204,49.023,1.118,48.453,1.118z M48.451,1.551      c0.464,0,0.637,0.06,0.698,0.11c0.059,0.047,0.129,0.179,0.129,0.538l0.003,0.456c0,0.774-0.069,0.949-0.099,0.987      c-0.028,0.036-0.153,0.119-0.731,0.119c-0.576,0-0.701-0.083-0.729-0.119c-0.029-0.039-0.099-0.212-0.099-0.987      c0-0.773,0.069-0.946,0.099-0.985C47.75,1.635,47.875,1.551,48.451,1.551z"
   id="path198" />
				<path
   d="M52.016,2.797c0.081-0.041,0.143-0.094,0.185-0.159c0.078-0.119,0.117-0.313,0.117-0.596      c0-0.321-0.072-0.553-0.214-0.69c-0.143-0.138-0.373-0.205-0.705-0.205h-1.441v3.02h0.483V3.009h1      c0.164,0,0.354,0.048,0.354,0.419v0.738h0.483V3.355C52.277,3.044,52.161,2.88,52.016,2.797z M51.848,2.122      c0,0.181-0.035,0.302-0.105,0.36c-0.051,0.042-0.17,0.093-0.45,0.093H50.44V1.581h0.963c0.251,0,0.336,0.055,0.364,0.088      C51.797,1.705,51.848,1.811,51.848,2.122z"
   id="path200" />
			</g>
		</g>
		<g
   id="g212">
			<polygon
   fill="#FFFFFF"
   points="27.774,3.289 25.963,5.099 24.742,3.877 24.356,4.267 25.963,5.874 28.463,3.375 28.072,2.984         "
   id="polygon206" />
			<polygon
   fill="#FFFFFF"
   points="23.939,3.678 24.025,3.592 24.068,3.548 24.155,3.462 24.241,3.376 24.239,3.375 25.963,1.651      26.779,2.467 26.125,3.127 25.503,2.505 25.114,2.893 25.138,2.9 25.154,2.898 25.154,2.9 26.143,3.904 27.283,2.746      27.561,2.466 25.955,0.867 23.465,3.375 23.854,3.764    "
   id="polygon208" />
			<path
   fill="#4EA9DE"
   d="M29.543,2.059c-0.678-1.845-2.755-2.78-4.643-2.088c-1.887,0.692-2.867,2.748-2.191,4.593     c0.677,1.846,2.755,2.779,4.642,2.088C29.237,5.959,30.219,3.903,29.543,2.059z M23.464,3.375l2.49-2.508l1.603,1.6l-0.281,0.28     l-1.133,1.158L25.154,2.9V2.898L25.138,2.9l-0.015-0.007l0.384-0.388l0.619,0.622l0.655-0.66l-0.817-0.816l-1.725,1.724     l0.002,0.001l-0.086,0.086l-0.087,0.086l-0.043,0.043l-0.086,0.086l-0.087,0.086L23.464,3.375z M25.963,5.874l-1.606-1.607     l0.386-0.39l1.221,1.221l1.812-1.81l0.298-0.305l0.391,0.391L25.963,5.874z"
   id="path210" />
		</g>
		<g
   id="g222">
			<path
   d="M45.938,6.095v0.316h-0.266V6.095H45.938z"
   id="path214" />
			<path
   d="M47.489,5.818h0.241l0.001,0.089c0,0.352-0.23,0.528-0.69,0.528c-0.296,0-0.491-0.056-0.586-0.167     c-0.096-0.111-0.143-0.34-0.143-0.688c0-0.325,0.049-0.546,0.145-0.663c0.098-0.116,0.281-0.175,0.553-0.175     c0.268,0,0.449,0.04,0.546,0.118c0.098,0.078,0.146,0.226,0.146,0.442h-0.24V5.262c0-0.127-0.031-0.212-0.095-0.254     c-0.063-0.043-0.188-0.064-0.376-0.064c-0.181,0-0.297,0.04-0.349,0.121c-0.052,0.08-0.078,0.26-0.078,0.54     c0,0.272,0.029,0.446,0.089,0.521c0.06,0.074,0.197,0.111,0.413,0.111c0.184,0,0.3-0.024,0.35-0.073     C47.465,6.114,47.489,6,47.489,5.818z"
   id="path216" />
			<path
   d="M48.746,4.744c0.304,0,0.5,0.053,0.591,0.159s0.136,0.334,0.136,0.688c0,0.353-0.045,0.582-0.136,0.688     s-0.287,0.158-0.591,0.158c-0.303,0-0.499-0.053-0.59-0.158s-0.136-0.335-0.136-0.688c0-0.353,0.045-0.582,0.136-0.688     S48.443,4.744,48.746,4.744z M48.746,4.943c-0.213,0-0.346,0.035-0.396,0.104c-0.053,0.069-0.077,0.25-0.077,0.542     c0,0.292,0.024,0.473,0.077,0.542c0.05,0.069,0.183,0.104,0.396,0.104c0.214,0,0.347-0.035,0.397-0.104     c0.051-0.07,0.077-0.25,0.077-0.542c0-0.292-0.026-0.473-0.077-0.542C49.093,4.979,48.96,4.943,48.746,4.943z"
   id="path218" />
			<path
   d="M49.848,4.769h0.24l-0.005,0.247l0.005,0.005c0.093-0.184,0.271-0.277,0.537-0.277c0.278,0,0.447,0.093,0.507,0.277     h0.007c0.104-0.184,0.292-0.277,0.565-0.277c0.388,0,0.581,0.198,0.581,0.594v1.074h-0.241V5.315     c0-0.145-0.025-0.243-0.077-0.294c-0.051-0.051-0.148-0.077-0.292-0.077c-0.19,0-0.319,0.036-0.387,0.107     s-0.102,0.208-0.102,0.41v0.95h-0.24V5.337l-0.004-0.076c0-0.212-0.121-0.318-0.362-0.318c-0.328,0-0.492,0.178-0.492,0.535     v0.933h-0.24V4.769z"
   id="path220" />
		</g>
	</g>
</g>
<g
   id="arrow"
   transform="rotate(90,9.8525,9.4995)">
	<polygon
   points="4.792,2.207 6.208,0.793 14.913,9.513 6.233,18.206 4.818,16.794 12.087,9.513 "
   id="polygon227" />
</g>
</svg>
